#!OML:ASF G:\JayActor3\Patient Classification 1\Patient 1\Session 6\male.ASF
:FULLY-SPECIFIED
:DEGREES
2293
root 1.98286 16.397 -20.9944 170.315 -43.4097 -171.99
lowerback 3.83176 2.57159 0.192561
upperback -2.31047 3.2349 -3.31212
thorax -4.33417 1.51878 -3.77675
lowerneck 10.6727 9.03058 2.02612
upperneck -7.7213 11.4211 -8.90252
head -3.38201 6.03382 -3.65695
rclavicle 5.54609e-014 4.6118e-014
rhumerus -27.0442 58.5711 -64.2071
rradius 103.751
rwrist -66.8492
rhand -27.5085 -7.3629
rfingers 7.12502
rthumb -0.911196 -37.3407
lclavicle 5.54609e-014 4.6118e-014
lhumerus 21.6116 -14.4254 44.8752
lradius 138.685
lwrist 63.8598
lhand -4.4006 25.794
lfingers 7.12502
lthumb 21.3692 54.6356
rfemur -13.9292 4.59137 12.6205
rtibia 32.6136
rfoot -14.2999 -12.3444
rtoes -2.45592
lfemur 0.121552 17.6617 -13.639
ltibia 22.7772
lfoot -18.7076 8.09624
ltoes 2.21055
2294
root 1.98439 16.3974 -21.0105 170.359 -43.5932 -172.02
lowerback 3.83062 2.54676 0.178721
upperback -2.29796 3.20218 -3.30195
thorax -4.32391 1.50354 -3.75557
lowerneck 10.6213 9.01711 1.96382
upperneck -7.91028 11.3735 -8.99076
head -3.43229 6.01771 -3.67663
rclavicle 1.11319e-014 3.81667e-014
rhumerus -26.7802 58.6171 -63.98
rradius 103.751
rwrist -66.8666
rhand -27.5357 -7.30132
rfingers 7.12502
rthumb -0.937529 -37.279
lclavicle 1.11319e-014 3.81667e-014
lhumerus 21.3664 -13.9868 44.751
lradius 138.906
lwrist 64.4486
lhand -4.61136 25.916
lfingers 7.12502
lthumb 21.1668 54.7805
rfemur -14.0404 4.67837 12.6022
rtibia 32.3908
rfoot -14.4203 -12.1961
rtoes -2.42585
lfemur 0.129618 17.6619 -13.627
ltibia 22.7224
lfoot -18.6678 7.94479
ltoes 2.13117
2295
root 1.98601 16.3979 -21.0272 170.408 -43.7734 -172.063
lowerback 3.83115 2.52368 0.158179
upperback -2.2832 3.17128 -3.29345
thorax -4.31238 1.48936 -3.7325
lowerneck 10.5763 8.99845 1.89602
upperneck -8.10325 11.3185 -9.06835
head -3.48623 5.99785 -3.69258
rclavicle -9.46215e-014 -2.8625e-014
rhumerus -26.5076 58.6573 -63.7467
rradius 103.749
rwrist -66.8955
rhand -27.5544 -7.25725
rfingers 7.12502
rthumb -0.955525 -37.2349
lclavicle -9.46215e-014 -2.8625e-014
lhumerus 21.1148 -13.5463 44.6166
lradius 139.136
lwrist 64.986
lhand -4.84427 26.0269
lfingers 7.12502
lthumb 20.943 54.9163
rfemur -14.1459 4.7904 12.5671
rtibia 32.1889
rfoot -14.5474 -11.9934
rtoes -2.24666
lfemur 0.154474 17.6603 -13.6214
ltibia 22.6493
lfoot -18.6209 7.7963
ltoes 2.04936
2296
root 1.98771 16.3985 -21.0443 170.466 -43.9566 -172.126
lowerback 3.834 2.5027 0.128687
upperback -2.26922 3.14215 -3.28973
thorax -4.30307 1.4761 -3.70966
lowerneck 10.551 8.97312 1.82881
upperneck -8.30004 11.2551 -9.13593
head -3.54563 5.97381 -3.70658
rclavicle -1.31198e-014 -1.59028e-014
rhumerus -26.257 58.6874 -63.5293
rradius 103.747
rwrist -66.9249
rhand -27.5567 -7.24399
rfingers 7.12502
rthumb -0.957738 -37.2216
lclavicle -1.31198e-014 -1.59028e-014
lhumerus 20.8577 -13.1098 44.471
lradius 139.371
lwrist 65.4811
lhand -5.07281 26.1285
lfingers 7.12502
lthumb 20.7235 55.042
rfemur -14.2498 4.9179 12.5101
rtibia 32.0104
rfoot -14.6517 -11.7444
rtoes -1.99916
lfemur 0.196971 17.6545 -13.6289
ltibia 22.5548
lfoot -18.5667 7.64954
ltoes 1.96587
2297
root 1.98953 16.3991 -21.062 170.531 -44.1396 -172.204
lowerback 3.84029 2.48686 0.0940166
upperback -2.25926 3.11903 -3.28979
thorax -4.29957 1.46569 -3.68861
lowerneck 10.5563 8.94264 1.76241
upperneck -8.4997 11.1853 -9.19158
head -3.61192 5.94678 -3.71872
rclavicle -7.97127e-014 3.33958e-014
rhumerus -26.0474 58.7065 -63.3422
rradius 103.746
rwrist -66.9511
rhand -27.5564 -7.23846
rfingers 7.12502
rthumb -0.957504 -37.2161
lclavicle -7.97127e-014 3.33958e-014
lhumerus 20.597 -12.6796 44.319
lradius 139.609
lwrist 65.9407
lhand -5.27211 26.2397
lfingers 7.12502
lthumb 20.5319 55.174
rfemur -14.3539 5.05857 12.4372
rtibia 31.8547
rfoot -14.7084 -11.4654
rtoes -1.77278
lfemur 0.257496 17.6473 -13.6447
ltibia 22.4395
lfoot -18.5043 7.50277
ltoes 1.89272
